# xmcd CD database file
#
# Track frame offsets:
#	150
#	21772
#	35104
#	57695
#	78450
#	106446
#	125021
#	141582
#	158820
#	180561
#
# Disc length: 2596 seconds
#
# Revision: 0
# Processed by: cddbd v1.5.2PL0 Copyright (c) Steve Scherf et al.
# Submitted via: CDex 1.51
#
DISCID=920a220a
DTITLE=The Sana Band - A Man On Every Hand
DYEAR=2009
DGENRE=Blues
TTITLE0=Man On Every Hand - Jazz
TTITLE1=Goin' Flying
TTITLE2=Randy's Groove
TTITLE3=Black Cat Blues
TTITLE4=Riding on a 12 Bar Blues
TTITLE5=Blues from the Heart
TTITLE6=Man that I Love
TTITLE7=Michael Trintham
TTITLE8=Man on Every Hand - Blues
TTITLE9=Gonna Have a Merry Christmas
EXTD=YEAR: 2009
EXTT0=
EXTT1=
EXTT2=
EXTT3=
EXTT4=
EXTT5=
EXTT6=
EXTT7=
EXTT8=
EXTT9=
PLAYORDER=
